<svg width="178" height="40" viewBox="0 0 178 40" fill="none" xmlns="http://www.w3.org/2000/svg">
<path d="M31.2278 19.5174C33.3771 19.5174 35.1195 17.775 35.1195 15.6257C35.1195 13.4763 33.3771 11.7339 31.2278 11.7339C29.0784 11.7339 27.336 13.4763 27.336 15.6257C27.336 17.775 29.0784 19.5174 31.2278 19.5174Z" fill="#5AC8FA"/>
<path d="M3.54923 28.1421C0.649143 35.0635 9.96281 40.3968 14.4578 34.3955C17.2079 30.4015 23.9759 30.3913 26.7363 34.3887C28.4641 36.614 32.0764 37.2138 34.4551 35.544C36.5032 34.2285 37.5289 31.5704 36.8917 29.219C35.6648 24.4207 29.299 23.2586 26.4636 27.3174C24.1463 31.9453 17.3885 29.1474 19.2117 24.2401C19.2731 24.0322 24.9642 11.5799 24.9642 11.5799C25.2504 10.8609 25.4038 10.0771 25.4038 9.25578C25.5163 2.60364 16.0458 0.565748 13.3673 6.54994C13.2139 6.72715 3.69236 27.9479 3.55264 28.1421H3.54923Z" fill="#0085DB"/>
<path d="M61.4532 27.9893H49V12.6289H52.3592V25.3546H61.4532V27.9893Z" fill="black"/>
<path d="M63.851 22.5537C63.8623 19.24 66.4515 16.9097 69.9969 16.9097C73.2811 16.9097 75.7818 18.9129 75.7818 22.2039C75.7818 22.5991 75.7454 23.0079 75.6705 23.4372H67.0352C67.2714 24.7159 68.7023 25.6085 70.2195 25.6085C71.4005 25.6085 72.4226 25.1111 73.1926 24.0822L75.457 25.6199C74.3373 27.3165 72.2477 28.2318 70.1446 28.2318C66.313 28.2318 63.8487 25.7198 63.8487 22.5537H63.851ZM72.8087 21.4907C72.6475 20.2802 71.5527 19.3535 70.0333 19.3535C68.5138 19.3535 67.2601 20.2575 67.0852 21.4907H72.8087Z" fill="black"/>
<path d="M78.2001 24.0498V17.1611H81.3843V23.3026C81.3843 24.8061 82.4541 25.6101 83.8486 25.6101C85.2432 25.6101 86.5241 24.8061 86.5241 23.3026V17.1611H89.7084V28.0199H86.6718L86.6105 26.8207C85.9881 27.5906 84.7072 28.3015 82.9038 28.3015C80.142 28.3015 78.2001 26.6617 78.2001 24.0475V24.0498Z" fill="black"/>
<path d="M92.0501 22.5764C92.0501 19.3967 94.8733 16.9097 98.4209 16.9097C100.66 16.9097 102.875 17.9726 103.97 20.0099L101.544 21.4135C100.847 20.1575 99.627 19.5806 98.4709 19.5806C96.554 19.5806 95.223 20.9161 95.223 22.6355C95.223 24.3548 96.5926 25.6335 98.4209 25.6335C99.7155 25.6335 100.797 25.0793 101.605 23.7552L103.906 25.2247C102.811 27.2052 100.585 28.2568 98.3437 28.2568C94.7597 28.2568 92.0479 25.7448 92.0479 22.5787L92.0501 22.5764Z" fill="black"/>
<path d="M108.228 12C109.311 12 110.07 12.6791 110.07 13.6739C110.07 14.6687 109.311 15.3364 108.228 15.3364C107.144 15.3364 106.399 14.6573 106.399 13.6739C106.399 12.6905 107.147 12 108.228 12ZM106.647 28.0167V17.158H109.845V28.0167H106.647Z" fill="black"/>
<path d="M112.442 27.9933V17.1345H115.479L115.54 18.3905C116.162 17.6319 117.443 16.9097 119.222 16.9097C121.983 16.9097 123.937 18.5609 123.937 21.175V27.9956H120.752V21.92C120.752 20.4165 119.683 19.6011 118.277 19.6011C116.871 19.6011 115.626 20.4165 115.626 21.92V27.9956H112.442V27.9933Z" fill="black"/>
<path d="M126.292 22.5537C126.303 19.24 128.893 16.9097 132.438 16.9097C135.722 16.9097 138.223 18.9129 138.223 22.2039C138.223 22.5991 138.187 23.0079 138.112 23.4372H129.476C129.713 24.7159 131.143 25.6085 132.661 25.6085C133.844 25.6085 134.864 25.1111 135.634 24.0822L137.898 25.6199C136.778 27.3165 134.689 28.2318 132.586 28.2318C128.754 28.2318 126.29 25.7198 126.29 22.5537H126.292ZM135.25 21.4907C135.089 20.2802 133.994 19.3535 132.477 19.3535C130.96 19.3535 129.701 20.2575 129.529 21.4907H135.252H135.25Z" fill="black"/>
</svg>
